<svg xmlns="http://www.w3.org/2000/svg" viewBox="0 0 276.44 273.01">
  <defs>
    <style>
      .cls-1 {
        fill: #f5f165;
      }

      .cls-2 {
        fill: #522120;
      }
    </style>
  </defs>
  <title>Asset 4</title>
  <g id="Layer_2" data-name="Layer 2">
    <g id="nav_comb">
      <g id="nav_item_3">
        <polygon class="cls-1" points="40.7 203.74 1.73 136.24 40.7 68.75 118.64 68.75 157.62 136.24 118.64 203.74 40.7 203.74"/>
        <path class="cls-2" d="M117.78,70.24l38.1,66-38.1,66H41.57l-38.11-66,38.11-66h76.21m1.73-3H39.84L0,136.24l39.84,69h79.67l39.84-69-39.84-69Z"/>
      </g>
      <g id="nav_item_1">
        <polygon class="cls-1" points="157.47 271.51 118.5 204.01 157.47 136.51 235.41 136.51 274.38 204.01 235.41 271.51 157.47 271.51"/>
        <path class="cls-2" d="M234.55,138l38.1,66-38.1,66H158.34l-38.11-66,38.11-66h76.21m1.73-3H156.61l-39.84,69,39.84,69h79.67l39.84-69-39.84-69Z"/>
      </g>
      <g id="nav_item_2">
        <polygon class="cls-1" points="157.79 136.5 118.82 69 157.79 1.5 235.73 1.5 274.7 69 235.73 136.5 157.79 136.5"/>
        <path class="cls-2" d="M234.87,3,273,69l-38.1,66H158.66L120.55,69,158.66,3h76.21m1.73-3H156.92L117.09,69l39.83,69H236.6l39.84-69L236.6,0Z"/>
      </g>
      <g id="nav_field_1">
        <path class="cls-2" d="M207.87,209.27v7H188.76v-7h5.86v-8.21a4,4,0,0,1-1.15,1,14.43,14.43,0,0,1-1.76.89,14.11,14.11,0,0,1-2,.66,7.66,7.66,0,0,1-1.77.25v-7.18a4.6,4.6,0,0,0,1.61-.44,18,18,0,0,0,2.06-1,14.74,14.74,0,0,0,1.88-1.28,4,4,0,0,0,1.09-1.17h8v16.54Z"/>
      </g>
      <g id="nav_field_2">
        <path class="cls-2" d="M212.59,70.39a17.33,17.33,0,0,1-3.31,1.53,9.28,9.28,0,0,1-3,.48,9,9,0,0,1-2.91-.53,18.07,18.07,0,0,1-3.13-1.55c-1.44-.89-2.58-1.59-3.43-2.1s-1.51-.88-2-1.11a2.88,2.88,0,0,0-1.08-.35,1.36,1.36,0,0,0-.68.18,1.79,1.79,0,0,0-1,1.34,3,3,0,0,0,.48,1.81,5.14,5.14,0,0,0,1.9,1.89A10,10,0,0,0,197.68,73l-2.56,7.2a8.79,8.79,0,0,1-2.39-1,15.24,15.24,0,0,1-2.44-1.76A20.87,20.87,0,0,1,186,72.3q-2.37-4.11-1.9-7.22a6.59,6.59,0,0,1,3.51-4.86,7.08,7.08,0,0,1,2.13-.84,6.74,6.74,0,0,1,2-.13,7.41,7.41,0,0,1,1.94.42c.65.24,1.28.51,1.9.81s1.5.77,2.24,1.21,1.54.85,2.36,1.24l-4.54-7.87,6.08-3.5Z"/>
      </g>
      <g id="nav_field_3">
        <path class="cls-2" d="M69.37,137.61a6.14,6.14,0,0,1-1.91,1.58,6.9,6.9,0,0,1-2.34.75,7.85,7.85,0,0,1-2.55-.09,8.06,8.06,0,0,1-2.52-.95,7.42,7.42,0,0,1-2.62-2.47,7.73,7.73,0,0,1-1.14-3.35,11,11,0,0,1,.4-4,19.53,19.53,0,0,1,2-4.54,17.72,17.72,0,0,1,3.51-4.45,13,13,0,0,1,4.36-2.58l2.94,6.31A8.19,8.19,0,0,0,67,125.29a9.78,9.78,0,0,0-1.91,2.45,5.71,5.71,0,0,0-1,3,2.29,2.29,0,0,0,1.29,1.86,2.36,2.36,0,0,0,2.56,0,8.79,8.79,0,0,0,2.61-3.16l.65-1.11,4.71,2.73-.72,1.25a5.83,5.83,0,0,0-.93,3.13,2.36,2.36,0,0,0,1.21,2.08,1.86,1.86,0,0,0,1.69.16,3.08,3.08,0,0,0,1.47-1.43,5.47,5.47,0,0,0,.73-2.7,6.75,6.75,0,0,0-.77-3l7.51-1.38a8,8,0,0,1,.36,2.38,13.21,13.21,0,0,1-.26,2.8,17.72,17.72,0,0,1-.85,3,19,19,0,0,1-1.42,3,16,16,0,0,1-2.53,3.36,10,10,0,0,1-2.88,2,6.86,6.86,0,0,1-3,.64,6.14,6.14,0,0,1-3-.85,6.59,6.59,0,0,1-1.82-1.53,7.49,7.49,0,0,1-1.2-2,6.44,6.44,0,0,1-.48-2.21A5.76,5.76,0,0,1,69.37,137.61Z"/>
      </g>
    </g>
  </g>
</svg>
