<svg xmlns="http://www.w3.org/2000/svg" viewBox="0 0 393.2 408.01">
  <defs>
    <style>
      .cls-1 {
        fill: #f5f165;
      }

      .cls-2 {
        fill: #522120;
      }
    </style>
  </defs>
  <title>Asset 6</title>
  <g id="Layer_2" data-name="Layer 2">
    <g id="nav_comb">
      <g id="nav_item_7">
        <polygon class="cls-1" points="157.62 271.57 118.65 204.07 157.62 136.57 235.56 136.57 274.54 204.07 235.56 271.57 157.62 271.57"/>
        <path class="cls-2" d="M234.7,138.07l38.1,66-38.1,66H158.49l-38.11-66,38.11-66H234.7m1.73-3H156.76l-39.84,69,39.84,69h79.67l39.84-69-39.84-69Z"/>
      </g>
      <g id="nav_item_6">
        <polygon class="cls-1" points="40.7 204.01 1.73 136.51 40.7 69.01 118.64 69.01 157.62 136.51 118.64 204.01 40.7 204.01"/>
        <path class="cls-2" d="M117.78,70.51l38.1,66-38.1,66H41.57l-38.11-66,38.11-66h76.21m1.73-3H39.84L0,136.51l39.84,69h79.67l39.84-69-39.84-69Z"/>
      </g>
      <g id="nav_item_5">
        <polygon class="cls-1" points="40.7 339.01 1.73 271.51 40.7 204.01 118.64 204.01 157.62 271.51 118.64 339.01 40.7 339.01"/>
        <path class="cls-2" d="M117.78,205.51l38.1,66-38.1,66H41.57l-38.11-66,38.11-66h76.21m1.73-3H39.84L0,271.51l39.84,69h79.67l39.84-69-39.84-69Z"/>
      </g>
      <g id="nav_item_4">
        <polygon class="cls-1" points="157.62 406.51 118.65 339.01 157.62 271.51 235.56 271.51 274.54 339.01 235.56 406.51 157.62 406.51"/>
        <path class="cls-2" d="M234.7,273l38.1,66-38.1,66H158.49l-38.11-66,38.11-66H234.7m1.73-3H156.76l-39.84,69,39.84,69h79.67l39.84-69-39.84-69Z"/>
      </g>
      <g id="nav_item_3">
        <polygon class="cls-1" points="274.55 339.01 235.58 271.51 274.55 204.01 352.49 204.01 391.46 271.51 352.49 339.01 274.55 339.01"/>
        <path class="cls-2" d="M351.63,205.51l38.1,66-38.1,66H275.42l-38.11-66,38.11-66h76.21m1.73-3H273.68l-39.83,69,39.83,69h79.68l39.84-69-39.84-69Z"/>
      </g>
      <g id="nav_item_2">
        <polygon class="cls-1" points="274.55 204.01 235.58 136.51 274.55 69.01 352.49 69.01 391.46 136.51 352.49 204.01 274.55 204.01"/>
        <path class="cls-2" d="M351.63,70.51l38.1,66-38.1,66H275.42l-38.11-66,38.11-66h76.21m1.73-3H273.68l-39.83,69,39.83,69h79.68l39.84-69-39.84-69Z"/>
      </g>
      <g id="nav_item_1">
        <polygon class="cls-1" points="157.62 136.5 118.65 69 157.62 1.5 235.56 1.5 274.54 69 235.56 136.5 157.62 136.5"/>
        <path class="cls-2" d="M234.7,3l38.1,66-38.1,66H158.49L120.38,69,158.49,3H234.7m1.73-3H156.76L116.92,69l39.84,69h79.67l39.84-69L236.43,0Z"/>
      </g>
    </g>
  </g>
</svg>
