<svg xmlns="http://www.w3.org/2000/svg" viewBox="0 0 400.8 31.66">
  <defs>
    <style>
      .cls-1 {
        opacity: 0;
      }
    </style>
  </defs>
  <title>Asset 3</title>
  <g id="Layer_2" data-name="Layer 2">
    <g id="Layer_1-2" data-name="Layer 1">
      <g>
        <path d="M0,30.48V1.19H12.05A7.54,7.54,0,0,1,15.47,2a8.83,8.83,0,0,1,2.71,2.09A10,10,0,0,1,20,7a8.82,8.82,0,0,1,.64,3.28,9.93,9.93,0,0,1-.6,3.42,9.36,9.36,0,0,1-1.69,2.93,8.32,8.32,0,0,1-2.62,2,7.46,7.46,0,0,1-3.38.77H2.1V30.48Zm2.1-13H12.21a5.54,5.54,0,0,0,2.6-.6,6,6,0,0,0,2-1.61A7.44,7.44,0,0,0,18,13a8.48,8.48,0,0,0,.43-2.7,7.46,7.46,0,0,0-.51-2.75,7.65,7.65,0,0,0-1.41-2.29,6.72,6.72,0,0,0-2.06-1.57A5.61,5.61,0,0,0,12,3.09H2.1Z"/>
        <path d="M54.5,1.19V30.48H52.4v-14H33.92v14H31.81V1.19h2.11V14.56H52.4V1.19Z"/>
        <path d="M68.33,30.48V1.19h2.1V30.48Z"/>
        <path d="M84.29,30.48V1.19H86.4v27.4h17.49v1.89Z"/>
        <path d="M130.13,30.48V1.19h12.18a7.57,7.57,0,0,1,3.42.78,8.67,8.67,0,0,1,2.7,2.09A9.83,9.83,0,0,1,150.21,7a9,9,0,0,1,.64,3.28,9.88,9.88,0,0,1-.5,3.11,9.1,9.1,0,0,1-1.4,2.7,8,8,0,0,1-2.19,2,7.64,7.64,0,0,1-2.8,1l7.3,11.38h-2.43l-7.1-11h-9.49V30.48Zm2.11-13h10.27a5.35,5.35,0,0,0,2.56-.62,6.65,6.65,0,0,0,2-1.63,7.4,7.4,0,0,0,1.26-2.31,8.37,8.37,0,0,0,.43-2.66,7.37,7.37,0,0,0-.51-2.71,7.65,7.65,0,0,0-1.41-2.29,6.94,6.94,0,0,0-2.06-1.59,5.61,5.61,0,0,0-2.54-.59h-10Z"/>
        <path class="cls-1" d="M174.78,30.69a12.14,12.14,0,0,1-5.57-1.28,14.39,14.39,0,0,1-4.33-3.34,15,15,0,0,1-2.81-4.75,15.66,15.66,0,0,1-1-5.48,15.28,15.28,0,0,1,1-5.62A15.87,15.87,0,0,1,165,5.48a13.65,13.65,0,0,1,4.35-3.28A12.4,12.4,0,0,1,174.82,1a12.17,12.17,0,0,1,5.59,1.3,13.94,13.94,0,0,1,4.33,3.41,15.66,15.66,0,0,1,2.79,4.76,15.45,15.45,0,0,1-.06,11,15.6,15.6,0,0,1-2.89,4.72,14,14,0,0,1-4.36,3.26A12.32,12.32,0,0,1,174.78,30.69Zm-11.6-14.85a14.17,14.17,0,0,0,.85,4.84,13,13,0,0,0,2.39,4.13,11.82,11.82,0,0,0,3.7,2.87,10.4,10.4,0,0,0,4.7,1.07,10.1,10.1,0,0,0,4.76-1.11,11.86,11.86,0,0,0,3.64-2.95A14,14,0,0,0,185.51,11a13.5,13.5,0,0,0-2.42-4.13A12.13,12.13,0,0,0,179.44,4,10.66,10.66,0,0,0,170,4a11.69,11.69,0,0,0-3.67,3A13.44,13.44,0,0,0,164,11.13,13.91,13.91,0,0,0,163.18,15.84Z"/>
        <path d="M198.34,15.63a15.65,15.65,0,0,1,.93-5.26A14.36,14.36,0,0,1,202,5.69a13.89,13.89,0,0,1,4.35-3.37A13,13,0,0,1,212.2,1a12,12,0,0,1,6.69,1.8A11.3,11.3,0,0,1,223,7.42l-1.73,1a9.83,9.83,0,0,0-1.84-2.56,9.81,9.81,0,0,0-4.8-2.6A12.4,12.4,0,0,0,212,3a10.46,10.46,0,0,0-5,1.14,11.61,11.61,0,0,0-3.63,3,12.9,12.9,0,0,0-2.25,4.1,14.73,14.73,0,0,0-.76,4.6,13.47,13.47,0,0,0,.91,4.95,13.81,13.81,0,0,0,2.47,4.15,12.14,12.14,0,0,0,3.72,2.87,10.25,10.25,0,0,0,4.62,1.07,11.82,11.82,0,0,0,2.72-.33,10.39,10.39,0,0,0,2.68-1,11,11,0,0,0,2.4-1.79,9.54,9.54,0,0,0,1.85-2.58l1.82.86a9.71,9.71,0,0,1-2,2.93A12.42,12.42,0,0,1,218.76,29a13.41,13.41,0,0,1-3.32,1.3,14.3,14.3,0,0,1-3.45.43,11.58,11.58,0,0,1-5.5-1.32A14.76,14.76,0,0,1,202.17,26a16,16,0,0,1-2.82-4.83A15.48,15.48,0,0,1,198.34,15.63Z"/>
        <path d="M235,30.48V1.19h2.1V19L254.2,1.19h2.44L244.47,14l12.79,16.46h-2.4L243.1,15.3l-6,6.15v9Z"/>
        <path d="M286.92,28.59v1.89H267.41V1.19h19.14v1.9h-17V14.6h14.9v1.81h-14.9V28.59Z"/>
        <path d="M298.85,30.48V1.19H311a7.54,7.54,0,0,1,3.42.78,8.83,8.83,0,0,1,2.71,2.09A10,10,0,0,1,318.92,7a8.82,8.82,0,0,1,.64,3.28,9.6,9.6,0,0,1-.5,3.11,8.88,8.88,0,0,1-1.4,2.7,7.77,7.77,0,0,1-2.18,2,7.69,7.69,0,0,1-2.81,1L320,30.48h-2.43l-7.1-11H301V30.48Zm2.1-13h10.28a5.34,5.34,0,0,0,2.55-.62,6.65,6.65,0,0,0,2-1.63A7.4,7.4,0,0,0,317,12.93a8.38,8.38,0,0,0,.44-2.66,7.38,7.38,0,0,0-.52-2.71,7.62,7.62,0,0,0-1.4-2.29,7,7,0,0,0-2.07-1.59,5.6,5.6,0,0,0-2.53-.59H301Z"/>
        <path d="M353.39,22.89a7.12,7.12,0,0,1-.62,3,7.6,7.6,0,0,1-1.69,2.42,7.89,7.89,0,0,1-2.51,1.61,8.28,8.28,0,0,1-3.06.57h-13.7V1.19h13.66a5.81,5.81,0,0,1,2.77.66,7,7,0,0,1,2.1,1.71A7.89,7.89,0,0,1,351.68,6a8,8,0,0,1,.48,2.71A7.82,7.82,0,0,1,351,12.74,6.54,6.54,0,0,1,348,15.46a7.36,7.36,0,0,1,4,2.79A7.8,7.8,0,0,1,353.39,22.89ZM333.92,3.09V14.8h10.73a4.81,4.81,0,0,0,2.18-.49,5.79,5.79,0,0,0,1.72-1.3A6.24,6.24,0,0,0,350.09,9a6.41,6.41,0,0,0-.39-2.25,6.32,6.32,0,0,0-1.07-1.86A5.2,5.2,0,0,0,347,3.56a4.77,4.77,0,0,0-2.11-.47ZM351.29,22.6a6.37,6.37,0,0,0-1.57-4.19A5.6,5.6,0,0,0,348,17.07a4.89,4.89,0,0,0-2.17-.49H333.92v12h11.59a5.29,5.29,0,0,0,2.29-.5,5.77,5.77,0,0,0,1.82-1.34,6.82,6.82,0,0,0,1.22-1.92A5.7,5.7,0,0,0,351.29,22.6Z"/>
        <path d="M365.32,30.48V1.19h2.1V30.48Z"/>
        <path d="M400.8,28.59v1.89H381.29V1.19h19.14v1.9h-17V14.6h14.9v1.81h-14.9V28.59Z"/>
      </g>
      <path d="M174.78,2.31l11.71,6.76V22.59l-11.71,6.76-11.71-6.76V9.07l11.71-6.76m0-2.31L161.07,7.92V23.75l13.71,7.91,13.71-7.91V7.92L174.78,0Z"/>
    </g>
  </g>
</svg>
